{"title":"TRUE_GLORY_DISC.1_Title1.avi","uid":10008534,"size":1011411942,"categoryP":"video","categoryS":"movies","magnet":"?xt=urn:btih:d886bd944751a4468dfdb78d69c014017df25e1d&amp;dn=TRUE_GLORY_DISC.1_Title1.avi&amp;tr=udp%3A%2F%2Ftracker.openbittorrent.com%3A80&amp;tr=udp%3A%2F%2Fopen.demonii.com%3A1337&amp;tr=udp%3A%2F%2Ftracker.coppersurfer.tk%3A6969&amp;tr=udp%3A%2F%2Fexodus.desync.com%3A6969","seeders":1,"leechers":0,"uploader":"CATRIX02","files":-1,"time":1398073979,"description":"Complete name         :The True Glory.From.D-Day.To.The.Fall.Of Berlin.dvd.rip._DISC.1\nFormat                                   : AVI\nFormat/Info                              : Audio Video Interleave\nFile size                                : 965 MiB\nDuration                                 : 1h 22mn\nOverall bit rate                         : 1 639 Kbps\nMovie name                               : THE_TRUE_GLORY\nGenre                                    : Documentary_War_Movie_Collectio\nWriting application                      : MEncoder 5.0\nWriting library                          : [= DigiArty videodll! =][= DigiArty videodll! \n\nID                                       : 0\nFormat                                   : MPEG-4 Visual\nFormat profile                           : Simple@L1\nFormat settings, BVOP                    : No\nFormat settings, QPel                    : No\nFormat settings, GMC                     : No warppoints\nFormat settings, Matrix                  : Default (H.263)\nCodec ID                                 : DX50\nCodec ID/Hint                            : DivX 5\nDuration                                 : 1h 22mn\nBit rate                                 : 1 499 Kbps\nWidth                                    : 720 pixels\nHeight                                   : 540 pixels\nDisplay aspect ratio                     : 4:3\nFrame rate                               : 25.000 fps\nColor space                              : YUV\nChroma subsampling                       : 4:2:0\nBit depth                                : 8 bits\nScan type                                : Progressive\nCompression mode                         : Lossy\nBits/(Pixel*Frame)                       : 0.154\nStream size                              : 882 MiB (91%)\nWriting library                          : Lavc54.79.100\n\nID                                       : 1\nFormat                                   : MPEG Audio\nFormat version                           : Version 1\nFormat profile                           : Layer 3\nCodec ID                                 : 55\nCodec ID/Hint                            : MP3\nDuration                                 : 1h 22mn\nBit rate mode                            : Constant\nBit rate                                 : 128 Kbps\nChannel(s)                               : 2 channels\nSampling rate                            : 44.1 KHz\nCompression mode                         : Lossy\nStream size                              : 75.3 MiB (8%)\nAlignment                                : Aligned on interleaves\nInterleave, duration                     : 26 ms (0.65 video frame)\nInterleave, preload duration             : 522 ms","torrent":{"xt":"urn:btih:d886bd944751a4468dfdb78d69c014017df25e1d","amp;dn":"TRUE_GLORY_DISC.1_Title1.avi","amp;tr":["udp%3A%2F%2Ftracker.openbittorrent.com%3A80","udp%3A%2F%2Fopen.demonii.com%3A1337","udp%3A%2F%2Ftracker.coppersurfer.tk%3A6969","udp%3A%2F%2Fexodus.desync.com%3A6969"],"infoHash":"d886bd944751a4468dfdb78d69c014017df25e1d","infoHashBuffer":{"type":"Buffer","data":[216,134,189,148,71,81,164,70,141,253,183,141,105,192,20,1,125,242,94,29]},"announce":[],"urlList":[]}}